<?xml version="1.0" encoding="iso-8859-1"?>
<!DOCTYPE svg PUBLIC "-//W3C//DTD SVG 1.0//EN" "http://www.w3.org/TR/2001/REC-SVG-20010904/DTD/svg10.dtd">
<svg xmlns="http://www.w3.org/2000/svg" xml:space="preserve" width="640px" height="512px" style="shape-rendering:geometricPrecision; text-rendering:geometricPrecision; image-rendering:optimizeQuality; fill-rule:evenodd"
     viewBox="0 0 10000 8000">
 <defs>
  <style type="text/css">
   <![CDATA[
    .str2 {stroke:#131516;stroke-width:15}
    .str0 {stroke:#131516;stroke-width:26;stroke-linecap:square}
    .str1 {stroke:#131516;stroke-width:21;stroke-dasharray:208 104}
    .fil4 {fill:none}
    .fil5 {fill:#131516}
    .fil3 {fill:#9FAAD1}
    .fil0 {fill:#DFE0E3}
    .fil1 {fill:#F2C2C2}
    .fil2 {fill:#FFFFFF}
   ]]>
  </style>
 </defs>
 <g id="Vrstva 1">
  <rect class="fil0" x="0" y="0" width="10000" height="8000"/>
  <rect class="fil1 str0" x="1875" y="4000" width="6250" height="2083"/>
  <rect class="fil2 str0" x="1875" y="1917" width="6250" height="2083"/>
  <path class="fil3 str0" d="M1875 1917l3125 2083 -3125 2083 0 -4166z"/>
  <path class="fil4 str1" d="M8125 1917l-3125 2083 3125 2083m-6250 -2083l3125 0"/>
  <g>
   <path class="fil5" d="M1887 7141l0 -32 146 -94 20 31 -146 95 0 -32z"/>
   <path class="fil5" d="M1887 7141l-24 -16 24 -16z"/>
   <path class="fil5" d="M2043 7220l-10 15 -146 -94 20 -32 146 95 -10 16z"/>
   <path class="fil5" d="M8074 7116l-6148 0 0 18 6148 0z"/>
   <path class="fil5" d="M8113 7141l0 -32 -146 -94 -20 31 146 95 0 -32z"/>
   <path class="fil5" d="M8113 7141l24 -16 -24 -16z"/>
   <path class="fil5" d="M7957 7220l10 15 146 -94 -20 -32 -146 95 10 16z"/>
  </g>
  <g>
   <path class="fil5" d="M1887 891l0 -32 146 -94 20 31 -146 95 0 -32z"/>
   <path class="fil5" d="M1887 891l-24 -16 24 -16z"/>
   <path class="fil5" d="M2043 970l-10 15 -146 -94 20 -32 146 95 -10 16z"/>
   <path class="fil5" d="M4949 866l-3023 0 0 18 3023 0z"/>
   <path class="fil5" d="M4988 891l0 -32 -146 -94 -20 31 146 95 0 -32z"/>
   <path class="fil5" d="M4988 891l24 -16 -24 -16z"/>
   <path class="fil5" d="M4832 970l10 15 146 -94 -20 -32 -146 95 10 16z"/>
  </g>
  <g>
   <path class="fil5" d="M5012 891l0 -32 146 -94 20 31 -146 95 0 -32z"/>
   <path class="fil5" d="M5012 891l-24 -16 24 -16z"/>
   <path class="fil5" d="M5168 970l-10 15 -146 -94 20 -32 146 95 -10 16z"/>
   <path class="fil5" d="M8074 866l-3023 0 0 18 3023 0z"/>
   <path class="fil5" d="M8113 891l0 -32 -146 -94 -20 31 146 95 0 -32z"/>
   <path class="fil5" d="M8113 891l24 -16 -24 -16z"/>
   <path class="fil5" d="M7957 970l10 15 146 -94 -20 -32 -146 95 10 16z"/>
  </g>
  <g>
   <path class="fil5" d="M9151 1929l31 0 95 146 -31 20 -95 -146 31 0z"/>
   <path class="fil5" d="M9151 1929l16 -24 15 24z"/>
   <path class="fil5" d="M9072 2085l-16 -10 95 -146 31 20 -95 146 -15 -10z"/>
   <path class="fil5" d="M9175 3949l0 -1982 -17 0 0 1982z"/>
   <path class="fil5" d="M9151 3988l31 0 95 -146 -31 -20 -95 146 31 0z"/>
   <path class="fil5" d="M9151 3988l16 24 15 -24z"/>
   <path class="fil5" d="M9072 3832l-16 10 95 146 31 -20 -95 -146 -15 10z"/>
  </g>
  <g>
   <path class="fil5" d="M9151 4012l31 0 95 146 -31 20 -95 -146 31 0z"/>
   <path class="fil5" d="M9151 4012l16 -24 15 24z"/>
   <path class="fil5" d="M9072 4168l-16 -10 95 -146 31 20 -95 146 -15 -10z"/>
   <path class="fil5" d="M9175 6033l0 -1982 -17 0 0 1982z"/>
   <path class="fil5" d="M9151 6071l31 0 95 -146 -31 -20 -95 146 31 0z"/>
   <path class="fil5" d="M9151 6071l16 24 15 -24z"/>
   <path class="fil5" d="M9072 5915l-16 10 95 146 31 -20 -95 -146 -15 10z"/>
  </g>
  <g>
   <path class="fil5" d="M818 1929l31 0 95 146 -31 20 -95 -146 31 0z"/>
   <path class="fil5" d="M818 1929l15 -24 16 24z"/>
   <path class="fil5" d="M739 2085l-16 -10 95 -146 31 20 -95 146 -15 -10z"/>
   <path class="fil5" d="M842 6033l0 -4066 -17 0 0 4066z"/>
   <path class="fil5" d="M818 6071l31 0 95 -146 -31 -20 -95 146 31 0z"/>
   <path class="fil5" d="M818 6071l15 24 16 -24z"/>
   <path class="fil5" d="M739 5915l-16 10 95 146 31 -20 -95 -146 -15 10z"/>
  </g>
  <path class="fil4 str2" d="M625 1917l1042 0"/>
  <path class="fil4 str2" d="M1875 667l0 1041"/>
  <path class="fil4 str2" d="M8125 667l0 1041"/>
  <path class="fil4 str2" d="M5000 667l0 3125"/>
  <path class="fil4 str2" d="M8333 1917l1042 0"/>
  <path class="fil4 str2" d="M8333 4000l1042 0"/>
  <path class="fil4 str2" d="M8333 6083l1042 0"/>
  <path class="fil4 str2" d="M8125 7333l0 -1041"/>
  <path class="fil4 str2" d="M1875 7333l0 -1041"/>
  <path class="fil4 str2" d="M625 6083l1042 0"/>
  <path class="fil5" d="M651 4167l0 43 -243 0c-1,-10 1,-21 5,-31 6,-17 16,-33 30,-49 13,-16 33,-35 59,-56 40,-33 67,-59 81,-78 14,-19 21,-37 21,-54 0,-18 -6,-33 -19,-45 -13,-13 -30,-19 -50,-19 -22,0 -40,7 -53,20 -13,13 -19,31 -19,54l-47 -5c3,-35 15,-61 36,-79 21,-18 49,-27 84,-27 35,0 63,9 84,29 20,20 30,44 30,73 0,15 -3,29 -9,43 -6,15 -16,30 -30,45 -14,16 -37,38 -69,65 -27,23 -45,38 -53,47 -7,8 -14,16 -19,24l181 0z"/>
  <path class="fil5" d="M3286 721l-45 0 0 -288c-11,10 -26,20 -43,31 -18,10 -34,18 -48,23l0 -43c25,-12 47,-27 66,-44 19,-17 33,-33 41,-49l29 0 0 370z"/>
  <path class="fil5" d="M3427 721l0 -52 51 0 0 52 -51 0z"/>
  <path class="fil5" d="M3545 624l47 -4c4,24 12,41 24,52 13,12 29,18 47,18 22,0 40,-8 55,-25 15,-16 23,-38 23,-65 0,-26 -8,-46 -22,-61 -14,-15 -33,-22 -57,-22 -15,0 -28,3 -39,10 -12,6 -21,15 -28,25l-42 -5 35 -189 183 0 0 43 -147 0 -19 99c22,-16 45,-23 69,-23 32,0 59,11 82,33 22,22 33,51 33,86 0,33 -10,62 -29,86 -24,30 -56,45 -97,45 -34,0 -61,-9 -82,-28 -21,-19 -33,-44 -36,-75z"/>
  <path class="fil5" d="M6411 721l-45 0 0 -288c-11,10 -26,20 -43,31 -18,10 -34,18 -48,23l0 -43c25,-12 48,-27 66,-44 19,-17 33,-33 41,-49l29 0 0 370z"/>
  <path class="fil5" d="M6552 721l0 -52 52 0 0 52 -52 0z"/>
  <path class="fil5" d="M6670 624l47 -4c4,24 12,41 24,52 13,12 29,18 47,18 22,0 40,-8 55,-25 15,-16 23,-38 23,-65 0,-26 -7,-46 -22,-61 -14,-15 -33,-22 -57,-22 -14,0 -28,3 -39,10 -12,6 -21,15 -28,25l-42 -5 35 -189 183 0 0 43 -147 0 -19 99c22,-16 45,-23 69,-23 32,0 59,11 82,33 22,22 33,51 33,86 0,33 -10,62 -29,86 -24,30 -56,45 -97,45 -34,0 -61,-9 -82,-28 -21,-19 -33,-44 -36,-75z"/>
  <path class="fil5" d="M4893 7551l45 -6c5,25 14,44 26,55 13,11 28,17 46,17 21,0 39,-7 54,-22 15,-15 22,-33 22,-55 0,-21 -7,-38 -20,-51 -14,-14 -31,-20 -52,-20 -9,0 -19,1 -32,5l5 -40c3,0 5,0 7,0 19,0 37,-5 52,-15 16,-10 23,-25 23,-46 0,-17 -5,-30 -16,-41 -12,-11 -26,-17 -44,-17 -18,0 -32,6 -44,17 -12,11 -19,28 -23,50l-45 -8c6,-31 18,-54 38,-71 20,-16 44,-25 73,-25 20,0 39,5 56,13 16,9 29,20 38,35 9,15 14,31 14,48 0,16 -4,30 -13,43 -9,13 -21,24 -38,32 22,4 39,15 51,31 12,16 18,35 18,59 0,32 -12,60 -35,82 -24,22 -53,33 -89,33 -33,0 -59,-9 -81,-28 -21,-20 -33,-45 -36,-75z"/>
  <path class="fil5" d="M9542 5252l-45 0 0 -288c-11,10 -25,21 -43,31 -18,11 -34,18 -48,23l0 -43c26,-12 48,-27 67,-43 19,-17 32,-34 40,-50l29 0 0 370z"/>
  <path class="fil5" d="M9542 3169l-45 0 0 -288c-11,10 -25,20 -43,31 -18,10 -34,18 -48,23l0 -44c26,-11 48,-26 67,-43 19,-17 32,-33 40,-49l29 0 0 370z"/>
 </g>
</svg>
